<svg xmlns="http://www.w3.org/2000/svg" viewBox="0 0 155 41.5"><linearGradient id="a" gradientUnits="userSpaceOnUse" x1="1.37" y1="20.764" x2="153.359" y2="20.764"><stop offset="0" stop-color="#f38381"/><stop offset=".178" stop-color="#f38981"/><stop offset=".41" stop-color="#f59983"/><stop offset=".673" stop-color="#f7b485"/><stop offset=".957" stop-color="#fada88"/><stop offset="1" stop-color="#fbe089"/></linearGradient><path d="M36.4 32l3.8 4-6.2 5.5-4.1-4.3c-2.6 1.3-5.7 2.1-8.9 2.1-10.9 0-19.7-8.5-19.7-19.7S10.2 0 21 0s19.7 8.5 19.7 19.7c0 4.7-1.6 9-4.3 12.3zm-12.7-1.4l-5.5-5.8 6.2-5.5 6 6.4c1-1.7 1.6-3.8 1.6-6.1 0-6.8-4.9-11.2-11-11.2s-11 4.5-11 11.2 4.9 11.2 11 11.2c.9.1 1.8 0 2.7-.2z" fill="url(#a)"/><linearGradient id="b" gradientUnits="userSpaceOnUse" x1="1.37" y1="20.764" x2="153.359" y2="20.764"><stop offset="0" stop-color="#f38381"/><stop offset=".178" stop-color="#f38981"/><stop offset=".41" stop-color="#f59983"/><stop offset=".673" stop-color="#f7b485"/><stop offset=".957" stop-color="#fada88"/><stop offset="1" stop-color="#fbe089"/></linearGradient><path d="M57.1 23.7c0 3.9-3.4 5.6-7.1 5.6-3.4 0-6-1.3-7.3-4l4.4-2.5c.4 1.3 1.4 2 2.9 2 1.2 0 1.8-.4 1.8-1.1 0-1.9-8.4-.9-8.4-6.8 0-3.7 3.1-5.6 6.7-5.6 2.8 0 5.2 1.2 6.6 3.6l-4.4 2.3c-.5-.9-1.2-1.5-2.3-1.5-.9 0-1.4.3-1.4 1 .1 2 8.5.7 8.5 7z" fill="url(#b)"/><linearGradient id="c" gradientUnits="userSpaceOnUse" x1="1.37" y1="20.764" x2="153.359" y2="20.764"><stop offset="0" stop-color="#f38381"/><stop offset=".178" stop-color="#f38981"/><stop offset=".41" stop-color="#f59983"/><stop offset=".673" stop-color="#f7b485"/><stop offset=".957" stop-color="#fada88"/><stop offset="1" stop-color="#fbe089"/></linearGradient><path d="M68.1 24.8c1.4 0 2.6-.5 3.3-1.3l4.1 2.3c-1.7 2.3-4.2 3.5-7.4 3.5-5.8 0-9.4-3.9-9.4-9s3.7-9 9-9c5 0 8.6 3.8 8.6 9 0 .7-.1 1.4-.2 2H64c.7 1.8 2.3 2.5 4.1 2.5zm3.2-6.2c-.5-2-2.1-2.7-3.6-2.7-1.9 0-3.2 1-3.7 2.7h7.3z" fill="url(#c)"/><linearGradient id="d" gradientUnits="userSpaceOnUse" x1="1.37" y1="20.764" x2="153.359" y2="20.764"><stop offset="0" stop-color="#f38381"/><stop offset=".178" stop-color="#f38981"/><stop offset=".41" stop-color="#f59983"/><stop offset=".673" stop-color="#f7b485"/><stop offset=".957" stop-color="#fada88"/><stop offset="1" stop-color="#fbe089"/></linearGradient><path d="M89.4 11.5v5.8c-2.1-.3-5.1.5-5.1 3.9v7.7h-5.1v-17h5.1v3c.7-2.3 3-3.4 5.1-3.4z" fill="url(#d)"/><linearGradient id="e" gradientUnits="userSpaceOnUse" x1="1.37" y1="20.764" x2="153.359" y2="20.764"><stop offset="0" stop-color="#f38381"/><stop offset=".178" stop-color="#f38981"/><stop offset=".41" stop-color="#f59983"/><stop offset=".673" stop-color="#f7b485"/><stop offset=".957" stop-color="#fada88"/><stop offset="1" stop-color="#fbe089"/></linearGradient><path d="M108.3 11.8l-6.3 17h-5.8l-6.3-17h5.6L99 22.6l3.5-10.8h5.8z" fill="url(#e)"/><linearGradient id="f" gradientUnits="userSpaceOnUse" x1="1.37" y1="20.764" x2="153.359" y2="20.764"><stop offset="0" stop-color="#f38381"/><stop offset=".178" stop-color="#f38981"/><stop offset=".41" stop-color="#f59983"/><stop offset=".673" stop-color="#f7b485"/><stop offset=".957" stop-color="#fada88"/><stop offset="1" stop-color="#fbe089"/></linearGradient><path d="M109.6 7.3c0-1.7 1.4-3.1 3.1-3.1 1.7 0 3.1 1.4 3.1 3.1 0 1.7-1.4 3.1-3.1 3.1-1.7-.1-3.1-1.5-3.1-3.1zm.5 4.5h5.1v17h-5.1v-17z" fill="url(#f)"/><linearGradient id="g" gradientUnits="userSpaceOnUse" x1="1.37" y1="20.764" x2="153.359" y2="20.764"><stop offset="0" stop-color="#f38381"/><stop offset=".178" stop-color="#f38981"/><stop offset=".41" stop-color="#f59983"/><stop offset=".673" stop-color="#f7b485"/><stop offset=".957" stop-color="#fada88"/><stop offset="1" stop-color="#fbe089"/></linearGradient><path d="M118.1 20.3c0-5.1 3.8-9 9-9 3.3 0 6.2 1.7 7.7 4.4l-4.5 2.6c-.6-1.2-1.8-1.9-3.3-1.9-2.2 0-3.8 1.6-3.8 3.9s1.6 3.9 3.8 3.9c1.5 0 2.8-.7 3.3-1.9l4.5 2.5c-1.5 2.7-4.4 4.4-7.7 4.4-5.1.1-9-3.8-9-8.9z" fill="url(#g)"/><linearGradient id="h" gradientUnits="userSpaceOnUse" x1="1.37" y1="20.764" x2="153.359" y2="20.764"><stop offset="0" stop-color="#f38381"/><stop offset=".178" stop-color="#f38981"/><stop offset=".41" stop-color="#f59983"/><stop offset=".673" stop-color="#f7b485"/><stop offset=".957" stop-color="#fada88"/><stop offset="1" stop-color="#fbe089"/></linearGradient><path d="M145.2 24.8c1.4 0 2.6-.5 3.3-1.3l4.1 2.3c-1.7 2.3-4.2 3.5-7.4 3.5-5.8 0-9.4-3.9-9.4-9s3.7-9 9-9c5 0 8.6 3.8 8.6 9 0 .7-.1 1.4-.2 2h-12.1c.6 1.8 2.2 2.5 4.1 2.5zm3.1-6.2c-.5-2-2.1-2.7-3.6-2.7-1.9 0-3.2 1-3.7 2.7h7.3z" fill="url(#h)"/></svg>