<?xml version="1.0" encoding="utf-8"?>
<!-- Generator: Adobe Illustrator 20.1.0, SVG Export Plug-In . SVG Version: 6.00 Build 0)  -->
<svg version="1.1" id="Layer_1" xmlns="http://www.w3.org/2000/svg" xmlns:xlink="http://www.w3.org/1999/xlink" x="0px" y="0px"
	 viewBox="0 0 155 41.5" style="enable-background:new 0 0 155 41.5;" xml:space="preserve">
<style type="text/css">
	.st0{fill:url(#SVGID_1_);}
	.st1{fill:url(#SVGID_2_);}
	.st2{fill:url(#SVGID_3_);}
	.st3{fill:url(#SVGID_4_);}
	.st4{fill:url(#SVGID_5_);}
	.st5{fill:url(#SVGID_6_);}
	.st6{fill:url(#SVGID_7_);}
	.st7{fill:url(#SVGID_8_);}
</style>
<g>
	<g>
		<g>
			<linearGradient id="SVGID_1_" gradientUnits="userSpaceOnUse" x1="1.3701" y1="20.7637" x2="153.3594" y2="20.7637">
				<stop  offset="0" style="stop-color:#F38381"/>
				<stop  offset="0.1778" style="stop-color:#F38981"/>
				<stop  offset="0.4104" style="stop-color:#F59983"/>
				<stop  offset="0.6735" style="stop-color:#F7B485"/>
				<stop  offset="0.9571" style="stop-color:#FADA88"/>
				<stop  offset="1" style="stop-color:#FBE089"/>
			</linearGradient>
			<path class="st0" d="M36.4,32l3.8,4l-6.2,5.5l-4.1-4.3c-2.6,1.3-5.7,2.1-8.9,2.1c-10.9,0-19.7-8.5-19.7-19.7S10.2,0,21,0
				s19.7,8.5,19.7,19.7C40.7,24.4,39.1,28.7,36.4,32z M23.7,30.6l-5.5-5.8l6.2-5.5l6,6.4c1-1.7,1.6-3.8,1.6-6.1
				c0-6.8-4.9-11.2-11-11.2s-11,4.5-11,11.2s4.9,11.2,11,11.2C21.9,30.9,22.8,30.8,23.7,30.6z"/>
		</g>
		<g>
			<linearGradient id="SVGID_2_" gradientUnits="userSpaceOnUse" x1="1.3701" y1="20.7637" x2="153.3594" y2="20.7637">
				<stop  offset="0" style="stop-color:#F38381"/>
				<stop  offset="0.1778" style="stop-color:#F38981"/>
				<stop  offset="0.4104" style="stop-color:#F59983"/>
				<stop  offset="0.6735" style="stop-color:#F7B485"/>
				<stop  offset="0.9571" style="stop-color:#FADA88"/>
				<stop  offset="1" style="stop-color:#FBE089"/>
			</linearGradient>
			<path class="st1" d="M57.1,23.7c0,3.9-3.4,5.6-7.1,5.6c-3.4,0-6-1.3-7.3-4l4.4-2.5c0.4,1.3,1.4,2,2.9,2c1.2,0,1.8-0.4,1.8-1.1
				c0-1.9-8.4-0.9-8.4-6.8c0-3.7,3.1-5.6,6.7-5.6c2.8,0,5.2,1.2,6.6,3.6l-4.4,2.3c-0.5-0.9-1.2-1.5-2.3-1.5c-0.9,0-1.4,0.3-1.4,1
				C48.7,18.7,57.1,17.4,57.1,23.7z"/>
			<linearGradient id="SVGID_3_" gradientUnits="userSpaceOnUse" x1="1.3701" y1="20.7637" x2="153.3594" y2="20.7637">
				<stop  offset="0" style="stop-color:#F38381"/>
				<stop  offset="0.1778" style="stop-color:#F38981"/>
				<stop  offset="0.4104" style="stop-color:#F59983"/>
				<stop  offset="0.6735" style="stop-color:#F7B485"/>
				<stop  offset="0.9571" style="stop-color:#FADA88"/>
				<stop  offset="1" style="stop-color:#FBE089"/>
			</linearGradient>
			<path class="st2" d="M68.1,24.8c1.4,0,2.6-0.5,3.3-1.3l4.1,2.3c-1.7,2.3-4.2,3.5-7.4,3.5c-5.8,0-9.4-3.9-9.4-9s3.7-9,9-9
				c5,0,8.6,3.8,8.6,9c0,0.7-0.1,1.4-0.2,2H64C64.7,24.1,66.3,24.8,68.1,24.8z M71.3,18.6c-0.5-2-2.1-2.7-3.6-2.7
				c-1.9,0-3.2,1-3.7,2.7H71.3z"/>
			<linearGradient id="SVGID_4_" gradientUnits="userSpaceOnUse" x1="1.3701" y1="20.7637" x2="153.3594" y2="20.7637">
				<stop  offset="0" style="stop-color:#F38381"/>
				<stop  offset="0.1778" style="stop-color:#F38981"/>
				<stop  offset="0.4104" style="stop-color:#F59983"/>
				<stop  offset="0.6735" style="stop-color:#F7B485"/>
				<stop  offset="0.9571" style="stop-color:#FADA88"/>
				<stop  offset="1" style="stop-color:#FBE089"/>
			</linearGradient>
			<path class="st3" d="M89.4,11.5v5.8c-2.1-0.3-5.1,0.5-5.1,3.9v7.7h-5.1v-17h5.1v3C85,12.6,87.3,11.5,89.4,11.5z"/>
			<linearGradient id="SVGID_5_" gradientUnits="userSpaceOnUse" x1="1.3701" y1="20.7637" x2="153.3594" y2="20.7637">
				<stop  offset="0" style="stop-color:#F38381"/>
				<stop  offset="0.1778" style="stop-color:#F38981"/>
				<stop  offset="0.4104" style="stop-color:#F59983"/>
				<stop  offset="0.6735" style="stop-color:#F7B485"/>
				<stop  offset="0.9571" style="stop-color:#FADA88"/>
				<stop  offset="1" style="stop-color:#FBE089"/>
			</linearGradient>
			<path class="st4" d="M108.3,11.8l-6.3,17h-5.8l-6.3-17h5.6l3.5,10.8l3.5-10.8H108.3z"/>
			<linearGradient id="SVGID_6_" gradientUnits="userSpaceOnUse" x1="1.3701" y1="20.7637" x2="153.3594" y2="20.7637">
				<stop  offset="0" style="stop-color:#F38381"/>
				<stop  offset="0.1778" style="stop-color:#F38981"/>
				<stop  offset="0.4104" style="stop-color:#F59983"/>
				<stop  offset="0.6735" style="stop-color:#F7B485"/>
				<stop  offset="0.9571" style="stop-color:#FADA88"/>
				<stop  offset="1" style="stop-color:#FBE089"/>
			</linearGradient>
			<path class="st5" d="M109.6,7.3c0-1.7,1.4-3.1,3.1-3.1c1.7,0,3.1,1.4,3.1,3.1c0,1.7-1.4,3.1-3.1,3.1
				C111,10.3,109.6,8.9,109.6,7.3z M110.1,11.8h5.1v17h-5.1V11.8z"/>
			<linearGradient id="SVGID_7_" gradientUnits="userSpaceOnUse" x1="1.3701" y1="20.7637" x2="153.3594" y2="20.7637">
				<stop  offset="0" style="stop-color:#F38381"/>
				<stop  offset="0.1778" style="stop-color:#F38981"/>
				<stop  offset="0.4104" style="stop-color:#F59983"/>
				<stop  offset="0.6735" style="stop-color:#F7B485"/>
				<stop  offset="0.9571" style="stop-color:#FADA88"/>
				<stop  offset="1" style="stop-color:#FBE089"/>
			</linearGradient>
			<path class="st6" d="M118.1,20.3c0-5.1,3.8-9,9-9c3.3,0,6.2,1.7,7.7,4.4l-4.5,2.6c-0.6-1.2-1.8-1.9-3.3-1.9
				c-2.2,0-3.8,1.6-3.8,3.9s1.6,3.9,3.8,3.9c1.5,0,2.8-0.7,3.3-1.9l4.5,2.5c-1.5,2.7-4.4,4.4-7.7,4.4
				C122,29.3,118.1,25.4,118.1,20.3z"/>
			<linearGradient id="SVGID_8_" gradientUnits="userSpaceOnUse" x1="1.3701" y1="20.7637" x2="153.3594" y2="20.7637">
				<stop  offset="0" style="stop-color:#F38381"/>
				<stop  offset="0.1778" style="stop-color:#F38981"/>
				<stop  offset="0.4104" style="stop-color:#F59983"/>
				<stop  offset="0.6735" style="stop-color:#F7B485"/>
				<stop  offset="0.9571" style="stop-color:#FADA88"/>
				<stop  offset="1" style="stop-color:#FBE089"/>
			</linearGradient>
			<path class="st7" d="M145.2,24.8c1.4,0,2.6-0.5,3.3-1.3l4.1,2.3c-1.7,2.3-4.2,3.5-7.4,3.5c-5.8,0-9.4-3.9-9.4-9s3.7-9,9-9
				c5,0,8.6,3.8,8.6,9c0,0.7-0.1,1.4-0.2,2h-12.1C141.7,24.1,143.3,24.8,145.2,24.8z M148.3,18.6c-0.5-2-2.1-2.7-3.6-2.7
				c-1.9,0-3.2,1-3.7,2.7H148.3z"/>
		</g>
	</g>
</g>
</svg>
